<?xml version="1.0" encoding="UTF-8" standalone="no"?>
<!DOCTYPE svg PUBLIC "-//W3C//DTD SVG 1.1//EN"
 "http://www.w3.org/Graphics/SVG/1.1/DTD/svg11.dtd">
<!-- Generated by graphviz version 6.0.1 (20220911.1526)
 -->
<!-- Pages: 1 -->
<svg width="113pt" height="481pt"
 viewBox="0.00 0.00 113.00 481.00" xmlns="http://www.w3.org/2000/svg" xmlns:xlink="http://www.w3.org/1999/xlink">
<g id="graph0" class="graph" transform="scale(1 1) rotate(0) translate(4 477)">
<polygon fill="white" stroke="none" points="-4,4 -4,-477 109,-477 109,4 -4,4"/>
<!-- fake -->
<g id="node1" class="node">
<title>fake</title>
</g>
<!-- S -->
<g id="node3" class="node">
<title>S</title>
<ellipse fill="none" stroke="black" cx="74" cy="-382" rx="27" ry="18"/>
<text text-anchor="middle" x="74" y="-378.3" font-family="Times New Roman,serif" font-size="14.00">S</text>
</g>
<!-- fake&#45;&gt;S -->
<g id="edge1" class="edge">
<title>fake&#45;&gt;S</title>
<path fill="none" stroke="black" stroke-width="2" d="M74,-436.81C74,-428.79 74,-419.05 74,-410.07"/>
<polygon fill="black" stroke="black" stroke-width="2" points="77.5,-410.03 74,-400.03 70.5,-410.03 77.5,-410.03"/>
</g>
<!-- D -->
<g id="node2" class="node">
<title>D</title>
<ellipse fill="none" stroke="black" cx="58" cy="-22" rx="18" ry="18"/>
<ellipse fill="none" stroke="black" cx="58" cy="-22" rx="22" ry="22"/>
<text text-anchor="middle" x="58" y="-18.3" font-family="Times New Roman,serif" font-size="14.00">D</text>
</g>
<!-- A -->
<g id="node4" class="node">
<title>A</title>
<ellipse fill="none" stroke="black" cx="27" cy="-295" rx="27" ry="18"/>
<text text-anchor="middle" x="27" y="-291.3" font-family="Times New Roman,serif" font-size="14.00">A</text>
</g>
<!-- S&#45;&gt;A -->
<g id="edge5" class="edge">
<title>S&#45;&gt;A</title>
<path fill="none" stroke="black" d="M64.94,-364.61C58.13,-352.3 48.69,-335.23 40.93,-321.19"/>
<polygon fill="black" stroke="black" points="43.78,-319.11 35.87,-312.05 37.65,-322.5 43.78,-319.11"/>
<text text-anchor="middle" x="57.5" y="-334.8" font-family="Times New Roman,serif" font-size="14.00">a</text>
</g>
<!-- B -->
<g id="node5" class="node">
<title>B</title>
<ellipse fill="none" stroke="black" cx="58" cy="-208" rx="27" ry="18"/>
<text text-anchor="middle" x="58" y="-204.3" font-family="Times New Roman,serif" font-size="14.00">B</text>
</g>
<!-- S&#45;&gt;B -->
<g id="edge3" class="edge">
<title>S&#45;&gt;B</title>
<path fill="none" stroke="black" d="M72.41,-363.88C69.63,-334 63.87,-272.11 60.54,-236.27"/>
<polygon fill="black" stroke="black" points="64,-235.68 59.59,-226.05 57.03,-236.33 64,-235.68"/>
<text text-anchor="middle" x="72" y="-291.3" font-family="Times New Roman,serif" font-size="14.00">b</text>
</g>
<!-- A&#45;&gt;B -->
<g id="edge4" class="edge">
<title>A&#45;&gt;B</title>
<path fill="none" stroke="black" d="M33.12,-277.21C37.5,-265.22 43.47,-248.85 48.46,-235.16"/>
<polygon fill="black" stroke="black" points="51.75,-236.35 51.89,-225.76 45.17,-233.95 51.75,-236.35"/>
<text text-anchor="middle" x="49" y="-247.8" font-family="Times New Roman,serif" font-size="14.00">b</text>
</g>
<!-- C -->
<g id="node6" class="node">
<title>C</title>
<ellipse fill="none" stroke="black" cx="58" cy="-117" rx="18" ry="18"/>
<ellipse fill="none" stroke="black" cx="58" cy="-117" rx="22" ry="22"/>
<text text-anchor="middle" x="58" y="-113.3" font-family="Times New Roman,serif" font-size="14.00">C</text>
</g>
<!-- B&#45;&gt;C -->
<g id="edge7" class="edge">
<title>B&#45;&gt;C</title>
<path fill="none" stroke="black" d="M58,-189.84C58,-178.44 58,-163.13 58,-149.58"/>
<polygon fill="black" stroke="black" points="61.5,-149.19 58,-139.19 54.5,-149.19 61.5,-149.19"/>
<text text-anchor="middle" x="61.5" y="-160.8" font-family="Times New Roman,serif" font-size="14.00">a</text>
</g>
<!-- C&#45;&gt;D -->
<g id="edge6" class="edge">
<title>C&#45;&gt;D</title>
<path fill="none" stroke="black" d="M58,-94.9C58,-82.89 58,-67.62 58,-54.24"/>
<polygon fill="black" stroke="black" points="61.5,-54.02 58,-44.02 54.5,-54.02 61.5,-54.02"/>
<text text-anchor="middle" x="61.5" y="-65.8" font-family="Times New Roman,serif" font-size="14.00">c</text>
</g>
<!-- C&#45;&gt;C -->
<g id="edge2" class="edge">
<title>C&#45;&gt;C</title>
<path fill="none" stroke="black" d="M78.58,-125.64C88.84,-126.84 98,-123.96 98,-117 98,-112.54 94.24,-109.76 88.84,-108.65"/>
<polygon fill="black" stroke="black" points="88.68,-105.14 78.58,-108.36 88.48,-112.14 88.68,-105.14"/>
<text text-anchor="middle" x="101.5" y="-113.3" font-family="Times New Roman,serif" font-size="14.00">a</text>
</g>
</g>
</svg>
