<?xml version="1.0" encoding="UTF-8" standalone="no"?>
<!DOCTYPE svg PUBLIC "-//W3C//DTD SVG 1.1//EN"
 "http://www.w3.org/Graphics/SVG/1.1/DTD/svg11.dtd">
<!-- Generated by graphviz version 6.0.1 (20220911.1526)
 -->
<!-- Pages: 1 -->
<svg width="274pt" height="758pt"
 viewBox="0.00 0.00 274.00 758.00" xmlns="http://www.w3.org/2000/svg" xmlns:xlink="http://www.w3.org/1999/xlink">
<g id="graph0" class="graph" transform="scale(1 1) rotate(0) translate(4 754)">
<polygon fill="white" stroke="none" points="-4,4 -4,-754 270,-754 270,4 -4,4"/>
<!-- fake -->
<g id="node1" class="node">
<title>fake</title>
</g>
<!-- S -->
<g id="node7" class="node">
<title>S</title>
<ellipse fill="none" stroke="black" cx="27" cy="-659" rx="27" ry="18"/>
<text text-anchor="middle" x="27" y="-655.3" font-family="Times New Roman,serif" font-size="14.00">S</text>
</g>
<!-- fake&#45;&gt;S -->
<g id="edge1" class="edge">
<title>fake&#45;&gt;S</title>
<path fill="none" stroke="black" stroke-width="2" d="M27,-713.81C27,-705.79 27,-696.05 27,-687.07"/>
<polygon fill="black" stroke="black" stroke-width="2" points="30.5,-687.03 27,-677.03 23.5,-687.03 30.5,-687.03"/>
</g>
<!-- G -->
<g id="node2" class="node">
<title>G</title>
<ellipse fill="none" stroke="black" cx="101" cy="-212" rx="18" ry="18"/>
<ellipse fill="none" stroke="black" cx="101" cy="-212" rx="22" ry="22"/>
<text text-anchor="middle" x="101" y="-208.3" font-family="Times New Roman,serif" font-size="14.00">G</text>
</g>
<!-- G&#45;&gt;G -->
<g id="edge4" class="edge">
<title>G&#45;&gt;G</title>
<path fill="none" stroke="black" d="M121.58,-220.64C131.84,-221.84 141,-218.96 141,-212 141,-207.54 137.24,-204.76 131.84,-203.65"/>
<polygon fill="black" stroke="black" points="131.68,-200.14 121.58,-203.36 131.48,-207.14 131.68,-200.14"/>
<text text-anchor="middle" x="144.5" y="-208.3" font-family="Times New Roman,serif" font-size="14.00">a</text>
</g>
<!-- F -->
<g id="node6" class="node">
<title>F</title>
<ellipse fill="none" stroke="black" cx="167" cy="-117" rx="18" ry="18"/>
<ellipse fill="none" stroke="black" cx="167" cy="-117" rx="22" ry="22"/>
<text text-anchor="middle" x="167" y="-113.3" font-family="Times New Roman,serif" font-size="14.00">F</text>
</g>
<!-- G&#45;&gt;F -->
<g id="edge15" class="edge">
<title>G&#45;&gt;F</title>
<path fill="none" stroke="black" d="M113.41,-193.51C123.37,-179.48 137.49,-159.58 148.73,-143.74"/>
<polygon fill="black" stroke="black" points="151.71,-145.59 154.64,-135.41 146,-141.54 151.71,-145.59"/>
<text text-anchor="middle" x="141" y="-160.8" font-family="Times New Roman,serif" font-size="14.00">b</text>
</g>
<!-- A -->
<g id="node3" class="node">
<title>A</title>
<ellipse fill="none" stroke="black" cx="89" cy="-572" rx="27" ry="18"/>
<text text-anchor="middle" x="89" y="-568.3" font-family="Times New Roman,serif" font-size="14.00">A</text>
</g>
<!-- B -->
<g id="node8" class="node">
<title>B</title>
<ellipse fill="none" stroke="black" cx="206" cy="-485" rx="27" ry="18"/>
<text text-anchor="middle" x="206" y="-481.3" font-family="Times New Roman,serif" font-size="14.00">B</text>
</g>
<!-- A&#45;&gt;B -->
<g id="edge2" class="edge">
<title>A&#45;&gt;B</title>
<path fill="none" stroke="black" d="M106.52,-558.27C125.99,-544.13 157.63,-521.14 180,-504.89"/>
<polygon fill="black" stroke="black" points="182.33,-507.52 188.36,-498.81 178.22,-501.86 182.33,-507.52"/>
<text text-anchor="middle" x="158" y="-524.8" font-family="Times New Roman,serif" font-size="14.00">b</text>
</g>
<!-- C -->
<g id="node9" class="node">
<title>C</title>
<ellipse fill="none" stroke="black" cx="164" cy="-303" rx="27" ry="18"/>
<text text-anchor="middle" x="164" y="-299.3" font-family="Times New Roman,serif" font-size="14.00">C</text>
</g>
<!-- A&#45;&gt;C -->
<g id="edge3" class="edge">
<title>A&#45;&gt;C</title>
<path fill="none" stroke="black" d="M93.81,-553.89C106.53,-508.59 141.18,-385.24 156.52,-330.63"/>
<polygon fill="black" stroke="black" points="159.9,-331.54 159.23,-320.97 153.16,-329.65 159.9,-331.54"/>
<text text-anchor="middle" x="130.5" y="-437.8" font-family="Times New Roman,serif" font-size="14.00">a</text>
</g>
<!-- D -->
<g id="node4" class="node">
<title>D</title>
<ellipse fill="none" stroke="black" cx="117" cy="-22" rx="18" ry="18"/>
<ellipse fill="none" stroke="black" cx="117" cy="-22" rx="22" ry="22"/>
<text text-anchor="middle" x="117" y="-18.3" font-family="Times New Roman,serif" font-size="14.00">D</text>
</g>
<!-- D&#45;&gt;A -->
<g id="edge10" class="edge">
<title>D&#45;&gt;A</title>
<path fill="none" stroke="black" d="M99.66,-36.04C80.1,-52.38 51,-82.34 51,-116 51,-486 51,-486 51,-486 51,-508.09 61.83,-530.83 71.93,-547.22"/>
<polygon fill="black" stroke="black" points="69.01,-549.15 77.39,-555.63 74.88,-545.33 69.01,-549.15"/>
<text text-anchor="middle" x="54.5" y="-299.3" font-family="Times New Roman,serif" font-size="14.00">a</text>
</g>
<!-- D&#45;&gt;S -->
<g id="edge13" class="edge">
<title>D&#45;&gt;S</title>
<path fill="none" stroke="black" d="M96.2,-29.61C63.81,-41.35 5,-69.12 5,-116 5,-573 5,-573 5,-573 5,-593.2 10.89,-615.26 16.58,-631.84"/>
<polygon fill="black" stroke="black" points="13.34,-633.18 20.04,-641.39 19.93,-630.8 13.34,-633.18"/>
<text text-anchor="middle" x="9" y="-342.8" font-family="Times New Roman,serif" font-size="14.00">b</text>
</g>
<!-- E -->
<g id="node5" class="node">
<title>E</title>
<ellipse fill="none" stroke="black" cx="207" cy="-394" rx="18" ry="18"/>
<ellipse fill="none" stroke="black" cx="207" cy="-394" rx="22" ry="22"/>
<text text-anchor="middle" x="207" y="-390.3" font-family="Times New Roman,serif" font-size="14.00">E</text>
</g>
<!-- E&#45;&gt;B -->
<g id="edge12" class="edge">
<title>E&#45;&gt;B</title>
<path fill="none" stroke="black" d="M206.76,-416.19C206.63,-428.28 206.45,-443.58 206.31,-456.58"/>
<polygon fill="black" stroke="black" points="202.81,-456.8 206.19,-466.84 209.81,-456.88 202.81,-456.8"/>
<text text-anchor="middle" x="210" y="-437.8" font-family="Times New Roman,serif" font-size="14.00">b</text>
</g>
<!-- E&#45;&gt;C -->
<g id="edge17" class="edge">
<title>E&#45;&gt;C</title>
<path fill="none" stroke="black" d="M197.67,-373.69C191.41,-360.73 183.09,-343.52 176.29,-329.44"/>
<polygon fill="black" stroke="black" points="179.37,-327.77 171.87,-320.29 173.07,-330.82 179.37,-327.77"/>
<text text-anchor="middle" x="191.5" y="-342.8" font-family="Times New Roman,serif" font-size="14.00">a</text>
</g>
<!-- F&#45;&gt;D -->
<g id="edge5" class="edge">
<title>F&#45;&gt;D</title>
<path fill="none" stroke="black" d="M156.88,-97.18C149.7,-83.82 139.94,-65.66 131.87,-50.66"/>
<polygon fill="black" stroke="black" points="134.92,-48.94 127.1,-41.79 128.76,-52.26 134.92,-48.94"/>
<text text-anchor="middle" x="148" y="-65.8" font-family="Times New Roman,serif" font-size="14.00">b</text>
</g>
<!-- F&#45;&gt;E -->
<g id="edge8" class="edge">
<title>F&#45;&gt;E</title>
<path fill="none" stroke="black" d="M174.4,-138.06C176.43,-144.08 178.48,-150.76 180,-157 197.49,-228.97 203.73,-316.12 205.89,-361.72"/>
<polygon fill="black" stroke="black" points="202.4,-362.02 206.34,-371.86 209.4,-361.71 202.4,-362.02"/>
<text text-anchor="middle" x="201.5" y="-255.8" font-family="Times New Roman,serif" font-size="14.00">a</text>
</g>
<!-- S&#45;&gt;A -->
<g id="edge11" class="edge">
<title>S&#45;&gt;A</title>
<path fill="none" stroke="black" d="M38.37,-642.41C47.72,-629.59 61.12,-611.22 71.79,-596.6"/>
<polygon fill="black" stroke="black" points="74.63,-598.63 77.7,-588.49 68.98,-594.51 74.63,-598.63"/>
<text text-anchor="middle" x="64.5" y="-611.8" font-family="Times New Roman,serif" font-size="14.00">a</text>
</g>
<!-- S&#45;&gt;S -->
<g id="edge14" class="edge">
<title>S&#45;&gt;S</title>
<path fill="none" stroke="black" d="M52.44,-665.78C63.03,-666.25 72,-663.99 72,-659 72,-655.73 68.14,-653.63 62.49,-652.7"/>
<polygon fill="black" stroke="black" points="62.6,-649.2 52.44,-652.22 62.26,-656.19 62.6,-649.2"/>
<text text-anchor="middle" x="76" y="-655.3" font-family="Times New Roman,serif" font-size="14.00">b</text>
</g>
<!-- B&#45;&gt;D -->
<g id="edge7" class="edge">
<title>B&#45;&gt;D</title>
<path fill="none" stroke="black" d="M220.76,-469.75C236.14,-453.31 258,-424.71 258,-395 258,-395 258,-395 258,-116 258,-63.96 190.24,-39.38 148.67,-29.19"/>
<polygon fill="black" stroke="black" points="149.25,-25.74 138.72,-26.91 147.68,-32.56 149.25,-25.74"/>
<text text-anchor="middle" x="262" y="-255.8" font-family="Times New Roman,serif" font-size="14.00">b</text>
</g>
<!-- B&#45;&gt;E -->
<g id="edge6" class="edge">
<title>B&#45;&gt;E</title>
<path fill="none" stroke="black" d="M199.11,-467.56C197.04,-461.79 195.03,-455.21 194,-449 192.64,-440.84 193.65,-432.09 195.6,-424.05"/>
<polygon fill="black" stroke="black" points="198.98,-424.94 198.45,-414.36 192.27,-422.96 198.98,-424.94"/>
<text text-anchor="middle" x="197.5" y="-437.8" font-family="Times New Roman,serif" font-size="14.00">a</text>
</g>
<!-- C&#45;&gt;G -->
<g id="edge9" class="edge">
<title>C&#45;&gt;G</title>
<path fill="none" stroke="black" d="M153.03,-286.5C143.77,-273.42 130.33,-254.44 119.43,-239.04"/>
<polygon fill="black" stroke="black" points="121.99,-236.6 113.36,-230.46 116.28,-240.64 121.99,-236.6"/>
<text text-anchor="middle" x="141.5" y="-255.8" font-family="Times New Roman,serif" font-size="14.00">a</text>
</g>
<!-- C&#45;&gt;F -->
<g id="edge16" class="edge">
<title>C&#45;&gt;F</title>
<path fill="none" stroke="black" d="M164.28,-284.69C164.79,-253.7 165.85,-188.33 166.49,-149.3"/>
<polygon fill="black" stroke="black" points="169.99,-149.09 166.66,-139.04 162.99,-148.98 169.99,-149.09"/>
<text text-anchor="middle" x="169" y="-208.3" font-family="Times New Roman,serif" font-size="14.00">b</text>
</g>
</g>
</svg>
